{
    "asset" : {
        "generator" : "Khronos glTF Blender I/O v0.9.35",
        "version" : "2.0"
    },
    "scene" : 0,
    "scenes" : [
        {
            "name" : "Scene",
            "nodes" : [
                0
            ]
        }
    ],
    "nodes" : [
        {
            "mesh" : 0,
            "name" : "coin"
        }
    ],
    "materials" : [
        {
            "doubleSided" : true,
            "name" : "material-coin",
            "pbrMetallicRoughness" : {
                "baseColorFactor" : [
                    0.8000000715255737,
                    0.3121464252471924,
                    0,
                    1
                ],
                "metallicFactor" : 0.6000000238418579,
                "roughnessFactor" : 0.20000000298023224
            }
        }
    ],
    "meshes" : [
        {
            "name" : "Cylinder",
            "primitives" : [
                {
                    "attributes" : {
                        "POSITION" : 0,
                        "NORMAL" : 1,
                        "TEXCOORD_0" : 2,
                        "TEXCOORD_1" : 3
                    },
                    "indices" : 4,
                    "material" : 0
                }
            ]
        }
    ],
    "accessors" : [
        {
            "bufferView" : 0,
            "componentType" : 5126,
            "count" : 1593,
            "max" : [
                0.3161224126815796,
                0.3161224126815796,
                0.07616262137889862
            ],
            "min" : [
                -0.3161224126815796,
                -0.3161224126815796,
                -0.07616262137889862
            ],
            "type" : "VEC3"
        },
        {
            "bufferView" : 1,
            "componentType" : 5126,
            "count" : 1593,
            "type" : "VEC3"
        },
        {
            "bufferView" : 2,
            "componentType" : 5126,
            "count" : 1593,
            "type" : "VEC2"
        },
        {
            "bufferView" : 3,
            "componentType" : 5126,
            "count" : 1593,
            "type" : "VEC2"
        },
        {
            "bufferView" : 4,
            "componentType" : 5123,
            "count" : 3780,
            "type" : "SCALAR"
        }
    ],
    "bufferViews" : [
        {
            "buffer" : 0,
            "byteLength" : 19116,
            "byteOffset" : 0
        },
        {
            "buffer" : 0,
            "byteLength" : 19116,
            "byteOffset" : 19116
        },
        {
            "buffer" : 0,
            "byteLength" : 12744,
            "byteOffset" : 38232
        },
        {
            "buffer" : 0,
            "byteLength" : 12744,
            "byteOffset" : 50976
        },
        {
            "buffer" : 0,
            "byteLength" : 7560,
            "byteOffset" : 63720
        }
    ],
    "buffers" : [
        {
            "byteLength" : 71280,
            "uri" : "data:application/octet-stream;base64,"
        }
    ]
}
