# MagicaVoxel @ Ephtracy

# group
o 

# material
mtllib untitled.mtl
usemtl palette

# normals
vn -1 0 0
vn 1 0 0
vn 0 0 1
vn 0 0 -1
vn 0 -1 0
vn 0 1 0

# texcoords
vt 0.533203 0.5
vt 0.537109 0.5
vt 0.978516 0.5

# verts
v -2 0 -0.4
v -2 0 -2
v -2 0.7 -0.4
v -2 0.7 -2
v -2 0.8 -0.4
v -2 0.8 -2
v -2 1.3 -0.4
v -2 1.3 -2
v 0.5 1.3 -0.9
v 0.5 1.3 -1.2
v 0.5 1.6 -0.9
v 0.5 1.6 -1.2
v 0.9 0.1 -0.6
v 0.9 0.1 -1.9
v 0.9 0.7 -0.6
v 0.9 0.7 -1.9
v 0.9 0.8 -0.6
v 0.9 0.8 -1.9
v 0.9 1.2 -0.6
v 0.9 1.2 -1.9
v -1.9 0.1 -0.6
v -1.9 0.1 -1.9
v -1.9 0.7 -0.6
v -1.9 0.7 -1.9
v -1.9 0.8 -0.6
v -1.9 0.8 -1.9
v -1.9 1.2 -0.6
v -1.9 1.2 -1.9
v 0.8 1.3 -0.9
v 0.8 1.3 -1.2
v 0.8 1.6 -0.9
v 0.8 1.6 -1.2
v 1 0 -0.4
v 1 0 -2
v 1 0.7 -0.4
v 1 0.7 -2
v 1 0.8 -0.4
v 1 0.8 -2
v 1 1.3 -0.4
v 1 1.3 -2
v -2 0 -0.4
v -2 0.7 -0.4
v -2 0.8 -0.4
v -2 1.3 -0.4
v -0.5 0 -0.4
v -0.5 0.7 -0.4
v 2.38419e-007 0 -0.4
v 2.38419e-007 0.7 -0.4
v 1 0 -0.4
v 1 0.7 -0.4
v 1 0.8 -0.4
v 1 1.3 -0.4
v 0.5 1.3 -0.9
v 0.5 1.6 -0.9
v 0.8 1.3 -0.9
v 0.8 1.6 -0.9
v -1.9 0.1 -1.9
v -1.9 0.7 -1.9
v -1.9 0.8 -1.9
v -1.9 1.2 -1.9
v 0.9 0.1 -1.9
v 0.9 0.7 -1.9
v 0.9 0.8 -1.9
v 0.9 1.2 -1.9
v -1.9 0.1 -0.6
v -1.9 0.7 -0.6
v -1.9 0.8 -0.6
v -1.9 1.2 -0.6
v 0.9 0.1 -0.6
v 0.9 0.7 -0.6
v 0.9 0.8 -0.6
v 0.9 1.2 -0.6
v 0.5 1.3 -1.2
v 0.5 1.6 -1.2
v 0.8 1.3 -1.2
v 0.8 1.6 -1.2
v -2 0 -2
v -2 0.7 -2
v -2 0.8 -2
v -2 1.3 -2
v 1 0 -2
v 1 0.7 -2
v 1 0.8 -2
v 1 1.3 -2
v -2 0 -0.4
v -0.5 0 -0.4
v 2.38419e-007 0 -0.4
v 1 0 -0.4
v -0.5 0 -0.5
v 2.38419e-007 0 -0.5
v -2 0 -2
v 1 0 -2
v -1.9 1.2 -0.6
v 0.9 1.2 -0.6
v -1.9 1.2 -1.9
v 0.9 1.2 -1.9
v -1.9 0.1 -0.6
v 0.9 0.1 -0.6
v -1.9 0.1 -1.9
v 0.9 0.1 -1.9
v -2 1.3 -0.4
v 1 1.3 -0.4
v 0.5 1.3 -0.9
v 0.8 1.3 -0.9
v 0.5 1.3 -1.2
v 0.8 1.3 -1.2
v -2 1.3 -2
v 1 1.3 -2
v 0.5 1.6 -0.9
v 0.8 1.6 -0.9
v 0.5 1.6 -1.2
v 0.8 1.6 -1.2

# faces
f 3/3/1 2/3/1 1/3/1
f 4/3/1 2/3/1 3/3/1
f 5/2/1 4/2/1 3/2/1
f 6/2/1 4/2/1 5/2/1
f 7/3/1 6/3/1 5/3/1
f 8/3/1 6/3/1 7/3/1
f 11/3/1 10/3/1 9/3/1
f 12/3/1 10/3/1 11/3/1
f 15/3/1 14/3/1 13/3/1
f 16/3/1 14/3/1 15/3/1
f 17/2/1 16/2/1 15/2/1
f 18/2/1 16/2/1 17/2/1
f 19/3/1 18/3/1 17/3/1
f 20/3/1 18/3/1 19/3/1
f 21/3/2 22/3/2 23/3/2
f 23/3/2 22/3/2 24/3/2
f 23/2/2 24/2/2 25/2/2
f 25/2/2 24/2/2 26/2/2
f 25/3/2 26/3/2 27/3/2
f 27/3/2 26/3/2 28/3/2
f 29/3/2 30/3/2 31/3/2
f 31/3/2 30/3/2 32/3/2
f 33/3/2 34/3/2 35/3/2
f 35/3/2 34/3/2 36/3/2
f 35/2/2 36/2/2 37/2/2
f 37/2/2 36/2/2 38/2/2
f 37/3/2 38/3/2 39/3/2
f 39/3/2 38/3/2 40/3/2
f 45/3/3 42/3/3 41/3/3
f 46/2/3 43/2/3 42/2/3
f 46/3/3 42/3/3 45/3/3
f 47/1/3 46/1/3 45/1/3
f 48/2/3 43/2/3 46/2/3
f 48/1/3 46/1/3 47/1/3
f 49/3/3 48/3/3 47/3/3
f 50/2/3 43/2/3 48/2/3
f 50/3/3 48/3/3 49/3/3
f 51/3/3 44/3/3 43/3/3
f 51/2/3 43/2/3 50/2/3
f 52/3/3 44/3/3 51/3/3
f 55/3/3 54/3/3 53/3/3
f 56/3/3 54/3/3 55/3/3
f 61/3/3 58/3/3 57/3/3
f 62/2/3 59/2/3 58/2/3
f 62/3/3 58/3/3 61/3/3
f 63/3/3 60/3/3 59/3/3
f 63/2/3 59/2/3 62/2/3
f 64/3/3 60/3/3 63/3/3
f 65/3/4 66/3/4 69/3/4
f 67/3/4 68/3/4 69/3/4
f 66/3/4 67/3/4 69/3/4
f 69/3/4 68/3/4 70/3/4
f 70/3/4 68/3/4 71/3/4
f 71/3/4 68/3/4 72/3/4
f 73/3/4 74/3/4 75/3/4
f 75/3/4 74/3/4 76/3/4
f 77/3/4 78/3/4 81/3/4
f 78/2/4 79/2/4 82/2/4
f 81/3/4 78/3/4 82/3/4
f 79/3/4 80/3/4 83/3/4
f 82/2/4 79/2/4 83/2/4
f 83/3/4 80/3/4 84/3/4
f 89/3/5 86/3/5 85/3/5
f 89/1/5 87/1/5 86/1/5
f 90/3/5 88/3/5 87/3/5
f 90/1/5 87/1/5 89/1/5
f 91/3/5 89/3/5 85/3/5
f 91/3/5 90/3/5 89/3/5
f 92/3/5 88/3/5 90/3/5
f 92/3/5 90/3/5 91/3/5
f 95/3/5 94/3/5 93/3/5
f 96/3/5 94/3/5 95/3/5
f 97/3/6 98/3/6 99/3/6
f 99/3/6 98/3/6 100/3/6
f 101/3/6 102/3/6 103/3/6
f 103/3/6 102/3/6 104/3/6
f 101/3/6 103/3/6 105/3/6
f 104/3/6 102/3/6 106/3/6
f 101/3/6 105/3/6 107/3/6
f 105/3/6 106/3/6 107/3/6
f 106/3/6 102/3/6 108/3/6
f 107/3/6 106/3/6 108/3/6
f 109/3/6 110/3/6 111/3/6
f 111/3/6 110/3/6 112/3/6
